<?xml version="1.0" encoding="utf-8"?>
<!-- Generator: Adobe Illustrator 19.0.0, SVG Export Plug-In . SVG Version: 6.00 Build 0)  -->
<svg version="1.1" id="Layer_1" xmlns="http://www.w3.org/2000/svg" xmlns:xlink="http://www.w3.org/1999/xlink" x="0px" y="0px"
	 width="80px" height="49px" viewBox="0 0 80 49" enable-background="new 0 0 80 49" xml:space="preserve">
<g id="XMLID_8_">
	<path id="XMLID_6_" fill="#6D0300" d="M41.7,1.2H26.4l-6.7,11.6c-6.3-3.6-14.3-1.4-17.9,4.9c-3.6,6.3-1.5,14.4,4.8,18
		c6.3,3.6,14.4,1.5,18-4.8c0.1-0.3,0.3-0.5,0.4-0.8L41.7,1.2z"/>
	<path id="XMLID_5_" fill="#6D0300" d="M68.3,1.2H53L46.3,13c-6.3-3.6-14.3-1.5-18,4.8c-3.6,6.3-1.5,14.4,4.8,18
		c6.3,3.6,14.3,1.5,17.9-4.7l0,0L68.3,1.2z"/>
	<path id="XMLID_4_" fill="#6D0300" d="M72.4,13.2c-6.3-3.6-14.4-1.5-18,4.8c-3.6,6.3-1.5,14.3,4.7,18l-6.8,11.7h15.3l8.9-15.4
		c0.2-0.3,0.5-0.7,0.7-1C80.9,24.9,78.7,16.9,72.4,13.2z"/>
	<path id="XMLID_3_" fill="#FFFFFF" d="M57.5,5.5l-12.7,22l0,0c-1.1,1.8-3,2.9-5.1,2.9c-1,0-2.1-0.3-3-0.8c-2.8-1.6-3.8-5.3-2.2-8.1
		c1.1-1.8,3-3,5.1-3c1,0,2,0.3,2.9,0.8l0.7-1.1c-1.1-0.6-2.3-1-3.6-1c-2.6,0-5,1.4-6.3,3.6c-2,3.5-0.8,7.9,2.7,9.9
		c1.1,0.6,2.4,1,3.6,1l0,0c2.5,0,4.9-1.3,6.2-3.5l0,0L59,5.5H57.5z"/>
	<path id="XMLID_2_" fill="#FFFFFF" d="M69.4,18.4c-1.1-0.6-2.4-1-3.6-1c-2.6,0-5,1.4-6.3,3.6c-1,1.7-1.2,3.6-0.7,5.5
		c0.5,1.8,1.7,3.4,3.3,4.3l0.7-1.1c-1.3-0.8-2.3-2-2.7-3.5c-0.4-1.5-0.2-3.1,0.6-4.5c1.1-1.8,3-3,5.1-3c1,0,2.1,0.3,3,0.8
		c2.8,1.6,3.8,5.3,2.2,8.1c0,0,0,0,0,0.1l0,0l-9,15.6h1.5l8.7-15.1l0,0C74.1,24.8,72.9,20.4,69.4,18.4z"/>
	<path id="XMLID_1_" fill="#FFFFFF" d="M32.4,5.5h-1.5L18.1,27.6l0,0c-1.1,1.6-2.9,2.6-4.9,2.6c-1,0-2.1-0.3-3-0.8
		c-2.8-1.6-3.8-5.3-2.2-8.1c1.1-1.8,3-3,5.1-3c1,0,2,0.3,2.9,0.7l0.7-1.1c-1.1-0.6-2.3-0.9-3.5-0.9c-2.6,0-5,1.4-6.3,3.6
		c-2,3.5-0.8,7.9,2.7,9.9c1.1,0.6,2.4,1,3.6,1l0,0c2.5,0,4.8-1.3,6.1-3.4l0,0L32.4,5.5z"/>
</g>
</svg>
